<svg width="550" height="348" viewBox="0 0 550 348" fill="none" xmlns="http://www.w3.org/2000/svg">
    <rect width="550" height="348" rx="15" fill="#D9D9D9" />
    <rect x="1.5" y="51.5" width="47" height="47" fill="#3964FF" stroke="#426CFE"
        stroke-width="3" />
    <rect x="101.5" y="51.5" width="47" height="47" fill="#3964FF" stroke="#426CFE"
        stroke-width="3" />
    <rect x="51.5" y="51.5" width="47" height="47" fill="#3964FF" stroke="#426CFE"
        stroke-width="3" />
    <rect x="151.5" y="51.5" width="47" height="47" fill="#3964FF" stroke="#426CFE"
        stroke-width="3" />
    <rect x="251.5" y="51.5" width="47" height="47" fill="#3964FF" stroke="#426CFE"
        stroke-width="3" />
    <rect x="201.5" y="51.5" width="47" height="47" fill="#3964FF" stroke="#426CFE"
        stroke-width="3" />
    <rect x="301.5" y="51.5" width="47" height="47" fill="#073DFF" stroke="#426CFE"
        stroke-width="3" />
    <rect x="401.5" y="51.5" width="47" height="47" fill="#3964FF" stroke="#426CFE"
        stroke-width="3" />
    <rect x="351.5" y="51.5" width="47" height="47" fill="#073DFF" stroke="#426CFE"
        stroke-width="3" />
    <rect x="451.5" y="51.5" width="47" height="47" fill="#3964FF" stroke="#426CFE"
        stroke-width="3" />
    <rect x="501.5" y="51.5" width="47" height="47" fill="#073DFF" stroke="#426CFE"
        stroke-width="3" />
    <path d="M1.5 101.5H48.5V148.5H1.5V101.5Z" fill="#3964FF" stroke="#426CFE" stroke-width="3" />
    <rect x="101.5" y="101.5" width="47" height="47" fill="#3964FF" stroke="#426CFE"
        stroke-width="3" />
    <rect x="51.5" y="101.5" width="47" height="47" fill="#3964FF" stroke="#426CFE"
        stroke-width="3" />
    <rect x="151.5" y="101.5" width="47" height="47" fill="#3964FF" stroke="#426CFE"
        stroke-width="3" />
    <rect x="251.5" y="101.5" width="47" height="47" fill="#3964FF" stroke="#426CFE"
        stroke-width="3" />
    <rect x="201.5" y="101.5" width="47" height="47" fill="#3964FF" stroke="#426CFE"
        stroke-width="3" />
    <rect x="301.5" y="101.5" width="47" height="47" fill="#3964FF" stroke="#426CFE"
        stroke-width="3" />
    <rect x="401.5" y="101.5" width="47" height="47" fill="#073DFF" stroke="#426CFE"
        stroke-width="3" />
    <rect x="351.5" y="101.5" width="47" height="47" fill="#3964FF" stroke="#426CFE"
        stroke-width="3" />
    <rect x="451.5" y="101.5" width="47" height="47" fill="#3964FF" stroke="#426CFE"
        stroke-width="3" />
    <path d="M501.5 101.5H548.5V148.5H501.5V101.5Z" fill="#3964FF" stroke="#426CFE"
        stroke-width="3" />
    <rect x="1.5" y="150.5" width="47" height="47" fill="#3964FF" stroke="#426CFE"
        stroke-width="3" />
    <rect x="101.5" y="150.5" width="47" height="47" fill="#3964FF" stroke="#426CFE"
        stroke-width="3" />
    <rect x="51.5" y="150.5" width="47" height="47" fill="#3964FF" stroke="#426CFE"
        stroke-width="3" />
    <rect x="151.5" y="150.5" width="47" height="47" fill="#3964FF" stroke="#426CFE"
        stroke-width="3" />
    <rect x="251.5" y="150.5" width="47" height="47" fill="#3964FF" stroke="#426CFE"
        stroke-width="3" />
    <rect x="201.5" y="150.5" width="47" height="47" fill="#3964FF" stroke="#426CFE"
        stroke-width="3" />
    <rect x="301.5" y="150.5" width="47" height="47" fill="#073DFF" stroke="#426CFE"
        stroke-width="3" />
    <rect x="401.5" y="150.5" width="47" height="47" fill="#3964FF" stroke="#426CFE"
        stroke-width="3" />
    <rect x="351.5" y="150.5" width="47" height="47" fill="#073DFF" stroke="#426CFE"
        stroke-width="3" />
    <rect x="451.5" y="150.5" width="47" height="47" fill="#3964FF" stroke="#426CFE"
        stroke-width="3" />
    <rect x="501.5" y="150.5" width="47" height="47" fill="#073DFF" stroke="#426CFE"
        stroke-width="3" />
    <path d="M1.5 200.5H48.5V247.5H1.5V200.5Z" fill="#3964FF" stroke="#426CFE" stroke-width="3" />
    <rect x="101.5" y="200.5" width="47" height="47" fill="#3964FF" stroke="#426CFE"
        stroke-width="3" />
    <rect x="51.5" y="200.5" width="47" height="47" fill="#3964FF" stroke="#426CFE"
        stroke-width="3" />
    <rect x="151.5" y="200.5" width="47" height="47" fill="#3964FF" stroke="#426CFE"
        stroke-width="3" />
    <rect x="251.5" y="200.5" width="47" height="47" fill="#3964FF" stroke="#426CFE"
        stroke-width="3" />
    <rect x="201.5" y="200.5" width="47" height="47" fill="#3964FF" stroke="#426CFE"
        stroke-width="3" />
    <rect x="301.5" y="200.5" width="47" height="47" fill="#3964FF" stroke="#426CFE"
        stroke-width="3" />
    <rect x="401.5" y="200.5" width="47" height="47" fill="#073DFF" stroke="#426CFE"
        stroke-width="3" />
    <rect x="351.5" y="200.5" width="47" height="47" fill="#3964FF" stroke="#426CFE"
        stroke-width="3" />
    <rect x="451.5" y="200.5" width="47" height="47" fill="#3964FF" stroke="#426CFE"
        stroke-width="3" />
    <path d="M501.5 200.5H548.5V247.5H501.5V200.5Z" fill="#3964FF" stroke="#426CFE"
        stroke-width="3" />
    <rect x="1.5" y="249.5" width="47" height="47" fill="#3964FF" stroke="#426CFE"
        stroke-width="3" />
    <rect x="101.5" y="249.5" width="47" height="47" fill="#3964FF" stroke="#426CFE"
        stroke-width="3" />
    <rect x="51.5" y="249.5" width="47" height="47" fill="#3964FF" stroke="#426CFE"
        stroke-width="3" />
    <rect x="151.5" y="249.5" width="47" height="47" fill="#3964FF" stroke="#426CFE"
        stroke-width="3" />
    <rect x="251.5" y="249.5" width="47" height="47" fill="#3964FF" stroke="#426CFE"
        stroke-width="3" />
    <rect x="201.5" y="249.5" width="47" height="47" fill="#3964FF" stroke="#426CFE"
        stroke-width="3" />
    <rect x="301.5" y="249.5" width="47" height="47" fill="#3964FF" stroke="#426CFE"
        stroke-width="3" />
    <rect x="401.5" y="249.5" width="47" height="47" fill="#3964FF" stroke="#426CFE"
        stroke-width="3" />
    <rect x="351.5" y="249.5" width="47" height="47" fill="#073DFF" stroke="#426CFE"
        stroke-width="3" />
    <rect x="451.5" y="249.5" width="47" height="47" fill="#3964FF" stroke="#426CFE"
        stroke-width="3" />
    <rect x="501.5" y="249.5" width="47" height="47" fill="#073DFF" stroke="#426CFE"
        stroke-width="3" />
    <path d="M1.5 299.5H48.5V346.5H15C7.54416 346.5 1.5 340.456 1.5 333V299.5Z" fill="#3964FF"
        stroke="#426CFE" stroke-width="3" />
    <rect x="101.5" y="299.5" width="47" height="47" fill="#3964FF" stroke="#426CFE"
        stroke-width="3" />
    <rect x="51.5" y="299.5" width="47" height="47" fill="#3964FF" stroke="#426CFE"
        stroke-width="3" />
    <rect x="151.5" y="299.5" width="47" height="47" fill="#3964FF" stroke="#426CFE"
        stroke-width="3" />
    <rect x="251.5" y="299.5" width="47" height="47" fill="#3964FF" stroke="#426CFE"
        stroke-width="3" />
    <rect x="201.5" y="299.5" width="47" height="47" fill="#3964FF" stroke="#426CFE"
        stroke-width="3" />
    <rect x="301.5" y="299.5" width="47" height="47" fill="#3964FF" stroke="#426CFE"
        stroke-width="3" />
    <rect x="401.5" y="299.5" width="47" height="47" fill="#073DFF" stroke="#426CFE"
        stroke-width="3" />
    <rect x="351.5" y="299.5" width="47" height="47" fill="#3964FF" stroke="#426CFE"
        stroke-width="3" />
    <rect x="451.5" y="299.5" width="47" height="47" fill="#3964FF" stroke="#426CFE"
        stroke-width="3" />
    <path d="M501.5 299.5H548.5V333C548.5 340.456 542.456 346.5 535 346.5H501.5V299.5Z"
        fill="#3964FF" stroke="#426CFE" stroke-width="3" />
    <rect x="1.5" y="1.5" width="47" height="47" fill="#3964FF" stroke="#426CFE" stroke-width="3" />
    <rect x="101.5" y="1.5" width="47" height="47" fill="#3964FF" stroke="#426CFE"
        stroke-width="3" />
    <rect x="51.5" y="1.5" width="47" height="47" fill="#3964FF" stroke="#426CFE"
        stroke-width="3" />
    <rect x="151.5" y="1.5" width="47" height="47" fill="#3964FF" stroke="#426CFE"
        stroke-width="3" />
    <rect x="251.5" y="1.5" width="47" height="47" fill="#3964FF" stroke="#426CFE"
        stroke-width="3" />
    <rect x="201.5" y="1.5" width="47" height="47" fill="#3964FF" stroke="#426CFE"
        stroke-width="3" />
    <rect x="301.5" y="1.5" width="47" height="47" fill="#3964FF" stroke="#426CFE"
        stroke-width="3" />
    <rect x="401.5" y="1.5" width="47" height="47" fill="#3964FF" stroke="#426CFE"
        stroke-width="3" />
    <path d="M351.5 1.5H398.5V48.5H351.5V1.5Z" fill="#073DFF" stroke="#426CFE" stroke-width="3" />
    <rect x="451.5" y="1.5" width="47" height="47" fill="#073DFF" stroke="#426CFE"
        stroke-width="3" />
    <rect x="501.5" y="1.5" width="47" height="47" fill="#3964FF" stroke="#426CFE"
        stroke-width="3" />
    <rect width="550" height="348" rx="15" fill="url(#paint0_linear_70_2)" />
    <defs>
        <linearGradient id="paint0_linear_70_2" x1="2.04891e-06" y1="174" x2="615" y2="174"
            gradientUnits="userSpaceOnUse">
            <stop offset="0.406436" stop-color="#3964FF" />
            <stop offset="1" stop-color="#D9D9D9" stop-opacity="0" />
        </linearGradient>
    </defs>
</svg>
