<?xml version="1.0" standalone="no"?>
<!DOCTYPE svg PUBLIC "-//W3C//DTD SVG 20010904//EN"
 "http://www.w3.org/TR/2001/REC-SVG-20010904/DTD/svg10.dtd">
<svg version="1.0" xmlns="http://www.w3.org/2000/svg"
 width="287.000000pt" height="261.000000pt" viewBox="0 0 287.000000 261.000000"
 preserveAspectRatio="xMidYMid meet">

<g transform="translate(0.000000,261.000000) scale(0.100000,-0.100000)"
fill="#000000" stroke="none">
<path d="M705 2582 c-75 -35 -143 -132 -181 -257 -24 -78 -24 -244 -1 -339 21
-82 81 -210 136 -286 22 -30 42 -65 46 -77 l6 -22 -253 -3 c-239 -3 -255 -4
-294 -25 -93 -49 -144 -129 -152 -234 -5 -73 6 -119 43 -173 l24 -36 -19 -42
c-40 -89 -18 -212 51 -284 29 -30 29 -31 14 -73 -27 -77 -17 -139 35 -216 26
-38 26 -42 13 -85 -32 -106 26 -236 132 -293 40 -22 46 -22 555 -22 562 0 561
0 682 61 44 22 58 24 213 24 l165 0 0 670 0 670 -209 0 -209 0 -39 48 c-22 26
-85 109 -141 184 -57 76 -140 178 -186 227 -101 108 -131 166 -185 353 -21 76
-47 152 -58 169 -41 70 -116 95 -188 61z m103 -118 c7 -13 28 -81 47 -151 53
-186 87 -254 184 -359 46 -49 143 -169 217 -266 74 -98 151 -193 170 -212 l37
-36 176 -2 176 -3 3 -567 2 -568 -139 0 c-133 0 -142 -1 -177 -25 -86 -58
-178 -67 -696 -63 -425 3 -437 4 -465 24 -46 35 -73 82 -73 131 0 45 16 69 69
104 l24 15 -52 32 c-113 70 -129 170 -37 233 20 13 36 26 36 29 0 3 -26 20
-56 39 -98 59 -140 159 -98 231 9 15 41 39 73 55 l56 27 -66 34 c-56 28 -70
41 -88 77 -12 24 -21 54 -21 68 0 81 54 158 125 178 25 7 150 11 328 11 l288
0 -6 23 c-32 116 -55 171 -102 240 -70 103 -89 141 -114 232 -25 94 -28 229
-5 306 23 79 75 161 115 181 39 19 54 16 69 -18z"/>
<path d="M2127 1696 c-50 -18 -76 -42 -98 -91 -17 -38 -19 -82 -19 -745 0
-792 -5 -741 74 -805 l38 -30 286 -3 c158 -2 302 0 320 3 37 7 96 55 118 96
20 40 21 1432 0 1482 -17 42 -66 83 -114 97 -58 16 -558 12 -605 -4z m264
-1195 c65 -66 18 -181 -75 -181 -94 0 -141 110 -77 179 24 26 36 31 76 31 38
0 52 -5 76 -29z"/>
</g>
</svg>
