<?xml version="1.0" standalone="no"?>
<!DOCTYPE svg PUBLIC "-//W3C//DTD SVG 20010904//EN"
 "http://www.w3.org/TR/2001/REC-SVG-20010904/DTD/svg10.dtd">
<svg version="1.0" xmlns="http://www.w3.org/2000/svg"
 width="90.000000pt" height="88.000000pt" viewBox="0 0 90.000000 88.000000"
 preserveAspectRatio="xMidYMid meet">

<g transform="translate(0.000000,88.000000) scale(0.100000,-0.100000)"
fill="#000000" stroke="none">
<path d="M138 787 l-118 -62 0 -353 c0 -211 4 -352 9 -350 5 2 61 30 125 63
l116 60 0 223 c0 205 1 222 18 222 16 1 16 1 0 11 -16 9 -18 26 -18 129 0 66
-3 120 -7 120 -5 -1 -61 -29 -125 -63z m92 18 c0 -6 -177 -95 -187 -94 -6 0
174 96 185 98 1 1 2 -1 2 -4z m-62 -197 c-7 -20 -48 -23 -48 -4 0 11 9 16 26
16 16 0 24 -5 22 -12z m82 -3 c0 -8 -8 -15 -17 -14 -13 0 -14 2 -4 6 11 5 11
7 0 14 -11 7 -10 9 4 9 9 0 17 -7 17 -15z m0 -440 c0 -2 -10 -9 -22 -15 -22
-11 -22 -10 -4 4 21 17 26 19 26 11z m-70 -40 c0 -3 -31 -21 -70 -40 -38 -19
-70 -33 -70 -30 0 4 126 72 138 75 1 0 2 -2 2 -5z"/>
<path d="M138 603 c7 -3 16 -2 19 1 4 3 -2 6 -13 5 -11 0 -14 -3 -6 -6z"/>
<path d="M752 791 c-61 -32 -115 -61 -119 -65 -6 -6 -7 -695 -1 -701 2 -2 57
25 123 58 l120 62 3 353 c1 193 -1 352 -5 352 -5 -1 -59 -27 -121 -59z m108
-301 l0 -329 -32 -16 c-29 -14 -31 -14 -14 0 11 8 23 15 28 15 4 0 8 147 8
326 0 243 -3 323 -12 318 -7 -4 -8 -3 -4 4 22 36 26 -10 26 -318z m-60 295 c0
-6 -137 -75 -147 -75 -6 1 134 77 145 80 1 0 2 -2 2 -5z m0 -399 c0 -8 -4 -18
-10 -21 -6 -4 -7 1 -3 11 5 13 3 15 -7 9 -9 -5 -11 -4 -6 3 10 17 26 15 26 -2z
m-44 -50 c-4 -29 -46 -62 -46 -36 0 11 31 48 42 49 3 1 5 -5 4 -13z m-66 -66
c-8 -6 -22 -10 -30 -10 -8 0 -4 6 10 13 27 15 44 12 20 -3z m40 -175 c0 -2
-18 -14 -40 -25 -22 -11 -40 -18 -40 -15 0 2 17 13 38 24 42 23 42 23 42 16z"/>
<path d="M729 313 c-13 -16 -12 -17 4 -4 9 7 17 15 17 17 0 8 -8 3 -21 -13z"/>
<path d="M318 708 c-2 -73 -1 -232 2 -353 l5 -220 120 -62 c66 -34 123 -63
128 -63 4 0 7 61 7 136 0 105 3 134 13 128 9 -6 9 -5 0 7 -9 11 -13 78 -15
225 l-3 209 -120 62 c-66 34 -123 62 -127 63 -4 0 -8 -60 -10 -132z m72 82
c22 -11 40 -23 40 -25 0 -3 -18 4 -40 15 l-40 20 0 -115 c0 -64 4 -114 9 -111
4 3 17 -4 27 -17 l19 -22 -21 18 c-20 16 -22 16 -28 2 -3 -9 -6 -103 -6 -209
l0 -192 61 -29 c33 -16 63 -33 66 -38 3 -4 -27 8 -66 28 l-71 35 0 330 c0 182
2 330 5 330 3 0 24 -9 45 -20z m170 -420 c0 -308 -4 -354 -26 -318 -4 7 -3 8
4 4 9 -5 12 75 12 317 l0 325 -30 12 c-17 7 -33 17 -36 22 -3 5 12 0 35 -11
l41 -21 0 -330z m-166 151 c-2 -3 -12 3 -22 13 -16 17 -16 18 5 5 12 -7 20
-15 17 -18z m44 -23 c7 -7 12 -16 12 -22 0 -5 -7 -1 -16 10 -14 17 -15 17 -10
1 3 -11 2 -16 -4 -12 -12 7 -13 35 -2 35 4 0 13 -5 20 -12z m41 -84 c13 -28 5
-52 -11 -36 -13 13 -19 62 -9 62 4 0 13 -12 20 -26z m43 -71 c22 -20 23 -33 3
-33 -12 0 -35 28 -35 44 0 11 13 6 32 -11z"/>
<path d="M460 415 c0 -5 5 -17 10 -25 5 -8 10 -10 10 -5 0 6 -5 17 -10 25 -5
8 -10 11 -10 5z"/>
<path d="M506 335 c4 -8 11 -15 16 -15 6 0 5 6 -2 15 -7 8 -14 15 -16 15 -2 0
-1 -7 2 -15z"/>
</g>
</svg>
